<mxfile host="app.diagrams.net" modified="2022-03-18T23:22:16.001Z" agent="5.0 (Windows)" etag="FGUPvt4oT5UADRTbI-GC" version="17.1.3" type="github">
  <diagram id="i6p08N5LefH2mOlKnpYc" name="Page-1">
    <mxGraphModel dx="806" dy="508" grid="1" gridSize="10" guides="1" tooltips="1" connect="1" arrows="1" fold="1" page="1" pageScale="1" pageWidth="827" pageHeight="1169" math="0" shadow="0">
      <root>
        <mxCell id="0" />
        <mxCell id="1" parent="0" />
        <mxCell id="WhnWOmHE7YmhKADEku-j-1" value="&lt;h1&gt;Algorithm of An Age Categories&lt;br&gt;&lt;/h1&gt;&lt;p&gt;User memasukkan data usianya yang kemudian akan dikategorikan sesuai usianya tersebut. &lt;br&gt;&lt;/p&gt;&lt;p&gt;A user inputs what the age the user is which then will be categorized based on the age.&lt;/p&gt;&lt;p&gt;Created at 2022/03/08&lt;br&gt;&lt;/p&gt;" style="text;html=1;strokeColor=none;fillColor=#A9C4EB;spacing=5;spacingTop=-20;whiteSpace=wrap;overflow=hidden;rounded=0;fontSize=14;" parent="1" vertex="1">
          <mxGeometry x="40" y="40" width="450" height="180" as="geometry" />
        </mxCell>
        <mxCell id="WhnWOmHE7YmhKADEku-j-2" value="&lt;div style=&quot;font-size: 12px&quot; align=&quot;left&quot;&gt;&lt;font style=&quot;font-size: 12px&quot; size=&quot;1&quot;&gt;&lt;b style=&quot;font-size: 14px&quot;&gt;The Algorithm&lt;/b&gt;&lt;/font&gt;&lt;/div&gt;&lt;div style=&quot;font-size: 12px&quot; align=&quot;left&quot;&gt;&lt;font style=&quot;font-size: 12px&quot;&gt;&lt;br&gt;&lt;/font&gt;&lt;/div&gt;&lt;div style=&quot;font-size: 12px&quot; align=&quot;left&quot;&gt;&lt;font style=&quot;font-size: 12px&quot;&gt;1. Input your age in number,&lt;/font&gt;&lt;/div&gt;&lt;div style=&quot;font-size: 12px&quot; align=&quot;left&quot;&gt;&lt;font style=&quot;font-size: 12px&quot;&gt;2. Look what category your ages is&lt;br&gt;&lt;/font&gt;&lt;/div&gt;" style="text;html=1;strokeColor=none;fillColor=none;align=left;verticalAlign=middle;whiteSpace=wrap;rounded=0;fontSize=14;" parent="1" vertex="1">
          <mxGeometry x="40" y="300" width="310" height="80" as="geometry" />
        </mxCell>
        <mxCell id="WhnWOmHE7YmhKADEku-j-3" value="" style="strokeWidth=2;html=1;shape=mxgraph.flowchart.terminator;whiteSpace=wrap;fontSize=14;fillColor=none;" parent="1" vertex="1">
          <mxGeometry x="55" y="400" width="90" height="50" as="geometry" />
        </mxCell>
        <mxCell id="WhnWOmHE7YmhKADEku-j-4" value="Start" style="text;html=1;strokeColor=none;fillColor=none;align=center;verticalAlign=middle;whiteSpace=wrap;rounded=0;fontSize=14;" parent="1" vertex="1">
          <mxGeometry x="70" y="410" width="60" height="30" as="geometry" />
        </mxCell>
        <mxCell id="WhnWOmHE7YmhKADEku-j-6" value="" style="shape=parallelogram;perimeter=parallelogramPerimeter;whiteSpace=wrap;html=1;fixedSize=1;fontSize=14;fillColor=none;strokeWidth=2;" parent="1" vertex="1">
          <mxGeometry x="40" y="540" width="120" height="50" as="geometry" />
        </mxCell>
        <mxCell id="WhnWOmHE7YmhKADEku-j-7" value="Input Age" style="text;html=1;strokeColor=none;fillColor=none;align=center;verticalAlign=middle;whiteSpace=wrap;rounded=0;fontSize=14;" parent="1" vertex="1">
          <mxGeometry x="65" y="550" width="70" height="30" as="geometry" />
        </mxCell>
        <mxCell id="WhnWOmHE7YmhKADEku-j-8" value="" style="rounded=1;whiteSpace=wrap;html=1;absoluteArcSize=1;arcSize=14;strokeWidth=2;fontSize=14;fillColor=none;" parent="1" vertex="1">
          <mxGeometry x="50" y="470" width="100" height="50" as="geometry" />
        </mxCell>
        <mxCell id="WhnWOmHE7YmhKADEku-j-9" value="Age = Integer" style="text;html=1;strokeColor=none;fillColor=none;align=center;verticalAlign=middle;whiteSpace=wrap;rounded=0;fontSize=14;" parent="1" vertex="1">
          <mxGeometry x="55" y="480" width="90" height="30" as="geometry" />
        </mxCell>
        <mxCell id="WhnWOmHE7YmhKADEku-j-10" value="" style="endArrow=classic;html=1;rounded=0;fontSize=14;exitX=0.5;exitY=1;exitDx=0;exitDy=0;exitPerimeter=0;entryX=0.5;entryY=0;entryDx=0;entryDy=0;" parent="1" source="WhnWOmHE7YmhKADEku-j-3" target="WhnWOmHE7YmhKADEku-j-8" edge="1">
          <mxGeometry width="50" height="50" relative="1" as="geometry">
            <mxPoint x="85" y="560" as="sourcePoint" />
            <mxPoint x="135" y="510" as="targetPoint" />
          </mxGeometry>
        </mxCell>
        <mxCell id="WhnWOmHE7YmhKADEku-j-11" value="" style="endArrow=classic;html=1;rounded=0;fontSize=14;exitX=0.5;exitY=1;exitDx=0;exitDy=0;entryX=0.5;entryY=0;entryDx=0;entryDy=0;" parent="1" source="WhnWOmHE7YmhKADEku-j-8" target="WhnWOmHE7YmhKADEku-j-6" edge="1">
          <mxGeometry width="50" height="50" relative="1" as="geometry">
            <mxPoint x="85" y="550" as="sourcePoint" />
            <mxPoint x="135" y="500" as="targetPoint" />
          </mxGeometry>
        </mxCell>
        <mxCell id="WhnWOmHE7YmhKADEku-j-12" value="" style="strokeWidth=2;html=1;shape=mxgraph.flowchart.decision;whiteSpace=wrap;fontSize=14;fillColor=none;" parent="1" vertex="1">
          <mxGeometry x="50" y="610" width="100" height="100" as="geometry" />
        </mxCell>
        <mxCell id="WhnWOmHE7YmhKADEku-j-13" value="If Age &amp;gt;0 &amp;amp;&amp;amp; &amp;lt;=5" style="text;html=1;strokeColor=none;fillColor=none;align=center;verticalAlign=middle;whiteSpace=wrap;rounded=0;fontSize=14;" parent="1" vertex="1">
          <mxGeometry x="70" y="645" width="60" height="30" as="geometry" />
        </mxCell>
        <mxCell id="WhnWOmHE7YmhKADEku-j-14" value="" style="endArrow=classic;html=1;rounded=0;fontSize=14;exitX=0.5;exitY=1;exitDx=0;exitDy=0;entryX=0.5;entryY=0;entryDx=0;entryDy=0;entryPerimeter=0;" parent="1" source="WhnWOmHE7YmhKADEku-j-6" target="WhnWOmHE7YmhKADEku-j-12" edge="1">
          <mxGeometry width="50" height="50" relative="1" as="geometry">
            <mxPoint x="85" y="590" as="sourcePoint" />
            <mxPoint x="135" y="540" as="targetPoint" />
          </mxGeometry>
        </mxCell>
        <mxCell id="WhnWOmHE7YmhKADEku-j-15" value="" style="endArrow=classic;html=1;rounded=0;fontSize=14;exitX=0.5;exitY=1;exitDx=0;exitDy=0;exitPerimeter=0;entryX=0.5;entryY=0;entryDx=0;entryDy=0;" parent="1" source="WhnWOmHE7YmhKADEku-j-12" target="WhnWOmHE7YmhKADEku-j-16" edge="1">
          <mxGeometry width="50" height="50" relative="1" as="geometry">
            <mxPoint x="85" y="680" as="sourcePoint" />
            <mxPoint x="45" y="680" as="targetPoint" />
          </mxGeometry>
        </mxCell>
        <mxCell id="WhnWOmHE7YmhKADEku-j-16" value="" style="shape=parallelogram;perimeter=parallelogramPerimeter;whiteSpace=wrap;html=1;fixedSize=1;fontSize=14;strokeWidth=2;fillColor=none;" parent="1" vertex="1">
          <mxGeometry x="40" y="740" width="120" height="55" as="geometry" />
        </mxCell>
        <mxCell id="WhnWOmHE7YmhKADEku-j-17" value="Print &quot;Balita&quot;" style="text;html=1;strokeColor=none;fillColor=none;align=center;verticalAlign=middle;whiteSpace=wrap;rounded=0;fontSize=14;" parent="1" vertex="1">
          <mxGeometry x="70" y="755" width="60" height="25" as="geometry" />
        </mxCell>
        <mxCell id="WhnWOmHE7YmhKADEku-j-19" value="Yes" style="text;html=1;strokeColor=none;fillColor=none;align=center;verticalAlign=middle;whiteSpace=wrap;rounded=0;fontSize=14;" parent="1" vertex="1">
          <mxGeometry x="100" y="710" width="35" height="30" as="geometry" />
        </mxCell>
        <mxCell id="WhnWOmHE7YmhKADEku-j-20" value="No" style="text;html=1;strokeColor=none;fillColor=none;align=center;verticalAlign=middle;whiteSpace=wrap;rounded=0;fontSize=14;" parent="1" vertex="1">
          <mxGeometry x="150" y="630" width="45" height="30" as="geometry" />
        </mxCell>
        <mxCell id="WhnWOmHE7YmhKADEku-j-21" value="" style="endArrow=classic;html=1;rounded=0;fontSize=14;exitX=1;exitY=0.5;exitDx=0;exitDy=0;exitPerimeter=0;entryX=0.5;entryY=0;entryDx=0;entryDy=0;entryPerimeter=0;" parent="1" source="WhnWOmHE7YmhKADEku-j-12" target="WhnWOmHE7YmhKADEku-j-22" edge="1">
          <mxGeometry width="50" height="50" relative="1" as="geometry">
            <mxPoint x="85" y="680" as="sourcePoint" />
            <mxPoint x="205" y="650" as="targetPoint" />
          </mxGeometry>
        </mxCell>
        <mxCell id="WhnWOmHE7YmhKADEku-j-22" value="" style="strokeWidth=2;html=1;shape=mxgraph.flowchart.decision;whiteSpace=wrap;fontSize=14;fillColor=none;" parent="1" vertex="1">
          <mxGeometry x="175" y="670" width="100" height="100" as="geometry" />
        </mxCell>
        <mxCell id="WhnWOmHE7YmhKADEku-j-24" value="If Age &amp;lt;=10" style="text;html=1;strokeColor=none;fillColor=none;align=center;verticalAlign=middle;whiteSpace=wrap;rounded=0;fontSize=14;" parent="1" vertex="1">
          <mxGeometry x="195" y="705" width="60" height="30" as="geometry" />
        </mxCell>
        <mxCell id="WhnWOmHE7YmhKADEku-j-25" value="" style="strokeWidth=2;html=1;shape=mxgraph.flowchart.decision;whiteSpace=wrap;fontSize=14;fillColor=none;" parent="1" vertex="1">
          <mxGeometry x="295" y="730" width="100" height="100" as="geometry" />
        </mxCell>
        <mxCell id="WhnWOmHE7YmhKADEku-j-26" value="" style="endArrow=classic;html=1;rounded=0;fontSize=14;exitX=1;exitY=0.5;exitDx=0;exitDy=0;exitPerimeter=0;entryX=0.5;entryY=0;entryDx=0;entryDy=0;entryPerimeter=0;" parent="1" source="WhnWOmHE7YmhKADEku-j-22" target="WhnWOmHE7YmhKADEku-j-25" edge="1">
          <mxGeometry width="50" height="50" relative="1" as="geometry">
            <mxPoint x="160" y="670" as="sourcePoint" />
            <mxPoint x="335" y="670" as="targetPoint" />
          </mxGeometry>
        </mxCell>
        <mxCell id="WhnWOmHE7YmhKADEku-j-27" value="No" style="text;html=1;strokeColor=none;fillColor=none;align=center;verticalAlign=middle;whiteSpace=wrap;rounded=0;fontSize=14;" parent="1" vertex="1">
          <mxGeometry x="275" y="690" width="45" height="30" as="geometry" />
        </mxCell>
        <mxCell id="WhnWOmHE7YmhKADEku-j-28" value="Yes" style="text;html=1;strokeColor=none;fillColor=none;align=center;verticalAlign=middle;whiteSpace=wrap;rounded=0;fontSize=14;" parent="1" vertex="1">
          <mxGeometry x="345" y="830" width="35" height="30" as="geometry" />
        </mxCell>
        <mxCell id="WhnWOmHE7YmhKADEku-j-29" value="" style="endArrow=classic;html=1;rounded=0;fontSize=14;exitX=0.5;exitY=1;exitDx=0;exitDy=0;exitPerimeter=0;entryX=0.5;entryY=0;entryDx=0;entryDy=0;" parent="1" source="WhnWOmHE7YmhKADEku-j-22" target="WhnWOmHE7YmhKADEku-j-30" edge="1">
          <mxGeometry width="50" height="50" relative="1" as="geometry">
            <mxPoint x="265" y="740" as="sourcePoint" />
            <mxPoint x="185" y="780" as="targetPoint" />
          </mxGeometry>
        </mxCell>
        <mxCell id="WhnWOmHE7YmhKADEku-j-30" value="" style="shape=parallelogram;perimeter=parallelogramPerimeter;whiteSpace=wrap;html=1;fixedSize=1;fontSize=14;strokeWidth=2;fillColor=none;" parent="1" vertex="1">
          <mxGeometry x="165" y="800" width="120" height="55" as="geometry" />
        </mxCell>
        <mxCell id="WhnWOmHE7YmhKADEku-j-31" value="Yes" style="text;html=1;strokeColor=none;fillColor=none;align=center;verticalAlign=middle;whiteSpace=wrap;rounded=0;fontSize=14;" parent="1" vertex="1">
          <mxGeometry x="225" y="770" width="30" height="30" as="geometry" />
        </mxCell>
        <mxCell id="WhnWOmHE7YmhKADEku-j-32" value="&lt;div&gt;Print&lt;/div&gt;&lt;div&gt;&quot;Anak-anak&quot;&lt;/div&gt;" style="text;html=1;strokeColor=none;fillColor=none;align=center;verticalAlign=middle;whiteSpace=wrap;rounded=0;fontSize=14;" parent="1" vertex="1">
          <mxGeometry x="175" y="815" width="100" height="25" as="geometry" />
        </mxCell>
        <mxCell id="WhnWOmHE7YmhKADEku-j-33" value="If Age &amp;lt;=23" style="text;html=1;strokeColor=none;fillColor=none;align=center;verticalAlign=middle;whiteSpace=wrap;rounded=0;fontSize=14;" parent="1" vertex="1">
          <mxGeometry x="315" y="765" width="60" height="30" as="geometry" />
        </mxCell>
        <mxCell id="WhnWOmHE7YmhKADEku-j-34" value="" style="endArrow=classic;html=1;rounded=0;fontSize=14;exitX=0.5;exitY=1;exitDx=0;exitDy=0;exitPerimeter=0;entryX=0.5;entryY=0;entryDx=0;entryDy=0;" parent="1" source="WhnWOmHE7YmhKADEku-j-25" target="WhnWOmHE7YmhKADEku-j-35" edge="1">
          <mxGeometry width="50" height="50" relative="1" as="geometry">
            <mxPoint x="265" y="740" as="sourcePoint" />
            <mxPoint x="305" y="840" as="targetPoint" />
          </mxGeometry>
        </mxCell>
        <mxCell id="WhnWOmHE7YmhKADEku-j-35" value="" style="shape=parallelogram;perimeter=parallelogramPerimeter;whiteSpace=wrap;html=1;fixedSize=1;fontSize=14;strokeWidth=2;fillColor=none;" parent="1" vertex="1">
          <mxGeometry x="285" y="860" width="120" height="55" as="geometry" />
        </mxCell>
        <mxCell id="WhnWOmHE7YmhKADEku-j-36" value="&lt;div&gt;Print&lt;/div&gt;&lt;div&gt;&quot;Remaja&quot;&lt;/div&gt;" style="text;html=1;strokeColor=none;fillColor=none;align=center;verticalAlign=middle;whiteSpace=wrap;rounded=0;fontSize=14;" parent="1" vertex="1">
          <mxGeometry x="295" y="875" width="100" height="25" as="geometry" />
        </mxCell>
        <mxCell id="WhnWOmHE7YmhKADEku-j-37" value="" style="strokeWidth=2;html=1;shape=mxgraph.flowchart.decision;whiteSpace=wrap;fontSize=14;fillColor=none;" parent="1" vertex="1">
          <mxGeometry x="415" y="790" width="100" height="100" as="geometry" />
        </mxCell>
        <mxCell id="WhnWOmHE7YmhKADEku-j-38" value="" style="endArrow=classic;html=1;rounded=0;fontSize=14;exitX=1;exitY=0.5;exitDx=0;exitDy=0;exitPerimeter=0;entryX=0.5;entryY=0;entryDx=0;entryDy=0;entryPerimeter=0;" parent="1" source="WhnWOmHE7YmhKADEku-j-25" target="WhnWOmHE7YmhKADEku-j-37" edge="1">
          <mxGeometry width="50" height="50" relative="1" as="geometry">
            <mxPoint x="285" y="730" as="sourcePoint" />
            <mxPoint x="355" y="740" as="targetPoint" />
          </mxGeometry>
        </mxCell>
        <mxCell id="WhnWOmHE7YmhKADEku-j-40" value="No" style="text;html=1;strokeColor=none;fillColor=none;align=center;verticalAlign=middle;whiteSpace=wrap;rounded=0;fontSize=14;" parent="1" vertex="1">
          <mxGeometry x="395" y="750" width="45" height="30" as="geometry" />
        </mxCell>
        <mxCell id="WhnWOmHE7YmhKADEku-j-41" value="If Age &amp;lt;=50" style="text;html=1;strokeColor=none;fillColor=none;align=center;verticalAlign=middle;whiteSpace=wrap;rounded=0;fontSize=14;" parent="1" vertex="1">
          <mxGeometry x="435" y="825" width="60" height="30" as="geometry" />
        </mxCell>
        <mxCell id="WhnWOmHE7YmhKADEku-j-42" value="" style="shape=parallelogram;perimeter=parallelogramPerimeter;whiteSpace=wrap;html=1;fixedSize=1;fontSize=14;strokeWidth=2;fillColor=none;" parent="1" vertex="1">
          <mxGeometry x="405" y="920" width="120" height="55" as="geometry" />
        </mxCell>
        <mxCell id="WhnWOmHE7YmhKADEku-j-43" value="&lt;div&gt;Print&lt;/div&gt;&lt;div&gt;&quot;Dewasa&quot;&lt;/div&gt;" style="text;html=1;strokeColor=none;fillColor=none;align=center;verticalAlign=middle;whiteSpace=wrap;rounded=0;fontSize=14;" parent="1" vertex="1">
          <mxGeometry x="415" y="935" width="100" height="25" as="geometry" />
        </mxCell>
        <mxCell id="WhnWOmHE7YmhKADEku-j-44" value="" style="endArrow=classic;html=1;rounded=0;fontSize=14;exitX=0.5;exitY=1;exitDx=0;exitDy=0;exitPerimeter=0;entryX=0.5;entryY=0;entryDx=0;entryDy=0;" parent="1" source="WhnWOmHE7YmhKADEku-j-37" target="WhnWOmHE7YmhKADEku-j-42" edge="1">
          <mxGeometry width="50" height="50" relative="1" as="geometry">
            <mxPoint x="355" y="840" as="sourcePoint" />
            <mxPoint x="355" y="870" as="targetPoint" />
          </mxGeometry>
        </mxCell>
        <mxCell id="WhnWOmHE7YmhKADEku-j-45" value="Yes" style="text;html=1;strokeColor=none;fillColor=none;align=center;verticalAlign=middle;whiteSpace=wrap;rounded=0;fontSize=14;" parent="1" vertex="1">
          <mxGeometry x="465" y="890" width="35" height="30" as="geometry" />
        </mxCell>
        <mxCell id="WhnWOmHE7YmhKADEku-j-46" value="No" style="text;html=1;strokeColor=none;fillColor=none;align=center;verticalAlign=middle;whiteSpace=wrap;rounded=0;fontSize=14;" parent="1" vertex="1">
          <mxGeometry x="522" y="830" width="45" height="30" as="geometry" />
        </mxCell>
        <mxCell id="WhnWOmHE7YmhKADEku-j-47" value="" style="shape=parallelogram;perimeter=parallelogramPerimeter;whiteSpace=wrap;html=1;fixedSize=1;fontSize=14;strokeWidth=2;fillColor=none;" parent="1" vertex="1">
          <mxGeometry x="545" y="940" width="120" height="55" as="geometry" />
        </mxCell>
        <mxCell id="WhnWOmHE7YmhKADEku-j-48" value="&lt;div&gt;Print&lt;/div&gt;&lt;div&gt;&quot;Tua&quot;&lt;/div&gt;" style="text;html=1;strokeColor=none;fillColor=none;align=center;verticalAlign=middle;whiteSpace=wrap;rounded=0;fontSize=14;" parent="1" vertex="1">
          <mxGeometry x="555" y="955" width="100" height="25" as="geometry" />
        </mxCell>
        <mxCell id="WhnWOmHE7YmhKADEku-j-49" value="" style="endArrow=classic;html=1;rounded=0;fontSize=14;exitX=1;exitY=0.5;exitDx=0;exitDy=0;exitPerimeter=0;entryX=0.5;entryY=0;entryDx=0;entryDy=0;" parent="1" source="WhnWOmHE7YmhKADEku-j-37" target="WhnWOmHE7YmhKADEku-j-47" edge="1">
          <mxGeometry width="50" height="50" relative="1" as="geometry">
            <mxPoint x="405" y="790" as="sourcePoint" />
            <mxPoint x="475" y="800" as="targetPoint" />
          </mxGeometry>
        </mxCell>
        <mxCell id="WhnWOmHE7YmhKADEku-j-50" value="" style="ellipse;whiteSpace=wrap;html=1;aspect=fixed;fontSize=14;strokeWidth=2;fillColor=none;" parent="1" vertex="1">
          <mxGeometry x="325" y="1010" width="40" height="40" as="geometry" />
        </mxCell>
        <mxCell id="WhnWOmHE7YmhKADEku-j-51" value="" style="endArrow=classic;html=1;rounded=0;fontSize=14;exitX=0.5;exitY=1;exitDx=0;exitDy=0;entryX=0;entryY=0.5;entryDx=0;entryDy=0;" parent="1" source="WhnWOmHE7YmhKADEku-j-16" target="WhnWOmHE7YmhKADEku-j-50" edge="1">
          <mxGeometry width="50" height="50" relative="1" as="geometry">
            <mxPoint x="365" y="920" as="sourcePoint" />
            <mxPoint x="415" y="870" as="targetPoint" />
            <Array as="points">
              <mxPoint x="100" y="1030" />
            </Array>
          </mxGeometry>
        </mxCell>
        <mxCell id="WhnWOmHE7YmhKADEku-j-53" value="" style="endArrow=classic;html=1;rounded=0;fontSize=14;exitX=0.5;exitY=1;exitDx=0;exitDy=0;entryX=0.5;entryY=0;entryDx=0;entryDy=0;" parent="1" source="WhnWOmHE7YmhKADEku-j-35" target="WhnWOmHE7YmhKADEku-j-50" edge="1">
          <mxGeometry width="50" height="50" relative="1" as="geometry">
            <mxPoint x="365" y="920" as="sourcePoint" />
            <mxPoint x="415" y="870" as="targetPoint" />
          </mxGeometry>
        </mxCell>
        <mxCell id="WhnWOmHE7YmhKADEku-j-54" value="" style="endArrow=classic;html=1;rounded=0;fontSize=14;exitX=0.5;exitY=1;exitDx=0;exitDy=0;entryX=1;entryY=0;entryDx=0;entryDy=0;" parent="1" source="WhnWOmHE7YmhKADEku-j-42" target="WhnWOmHE7YmhKADEku-j-50" edge="1">
          <mxGeometry width="50" height="50" relative="1" as="geometry">
            <mxPoint x="365" y="980" as="sourcePoint" />
            <mxPoint x="415" y="930" as="targetPoint" />
            <Array as="points">
              <mxPoint x="465" y="1016" />
            </Array>
          </mxGeometry>
        </mxCell>
        <mxCell id="WhnWOmHE7YmhKADEku-j-55" value="" style="endArrow=classic;html=1;rounded=0;fontSize=14;exitX=0.5;exitY=1;exitDx=0;exitDy=0;entryX=1;entryY=0.5;entryDx=0;entryDy=0;" parent="1" source="WhnWOmHE7YmhKADEku-j-47" target="WhnWOmHE7YmhKADEku-j-50" edge="1">
          <mxGeometry width="50" height="50" relative="1" as="geometry">
            <mxPoint x="365" y="980" as="sourcePoint" />
            <mxPoint x="415" y="930" as="targetPoint" />
            <Array as="points">
              <mxPoint x="605" y="1030" />
            </Array>
          </mxGeometry>
        </mxCell>
        <mxCell id="WhnWOmHE7YmhKADEku-j-56" value="" style="endArrow=classic;html=1;rounded=0;fontSize=14;exitX=0.5;exitY=1;exitDx=0;exitDy=0;entryX=0.5;entryY=0;entryDx=0;entryDy=0;entryPerimeter=0;" parent="1" source="WhnWOmHE7YmhKADEku-j-50" target="WhnWOmHE7YmhKADEku-j-57" edge="1">
          <mxGeometry width="50" height="50" relative="1" as="geometry">
            <mxPoint x="365" y="1010" as="sourcePoint" />
            <mxPoint x="295" y="1050" as="targetPoint" />
          </mxGeometry>
        </mxCell>
        <mxCell id="WhnWOmHE7YmhKADEku-j-57" value="" style="strokeWidth=2;html=1;shape=mxgraph.flowchart.terminator;whiteSpace=wrap;fontSize=14;fillColor=none;" parent="1" vertex="1">
          <mxGeometry x="300" y="1070" width="90" height="50" as="geometry" />
        </mxCell>
        <mxCell id="WhnWOmHE7YmhKADEku-j-58" value="Finish" style="text;html=1;strokeColor=none;fillColor=none;align=center;verticalAlign=middle;whiteSpace=wrap;rounded=0;fontSize=14;" parent="1" vertex="1">
          <mxGeometry x="315" y="1080" width="60" height="30" as="geometry" />
        </mxCell>
        <mxCell id="WhnWOmHE7YmhKADEku-j-59" value="" style="endArrow=classic;html=1;rounded=0;fontSize=14;exitX=0.5;exitY=1;exitDx=0;exitDy=0;entryX=0;entryY=0;entryDx=0;entryDy=0;" parent="1" source="WhnWOmHE7YmhKADEku-j-30" target="WhnWOmHE7YmhKADEku-j-50" edge="1">
          <mxGeometry width="50" height="50" relative="1" as="geometry">
            <mxPoint x="330" y="1030" as="sourcePoint" />
            <mxPoint x="225" y="1030" as="targetPoint" />
            <Array as="points">
              <mxPoint x="225" y="1016" />
            </Array>
          </mxGeometry>
        </mxCell>
      </root>
    </mxGraphModel>
  </diagram>
</mxfile>
